<svg xmlns="http://www.w3.org/2000/svg" xmlns:xlink="http://www.w3.org/1999/xlink" width="400" zoomAndPan="magnify" viewBox="0 0 300 149.999998" height="200" preserveAspectRatio="xMidYMid meet" version="1.0"><defs><g/><clipPath id="de1d857474"><path d="M 140.386719 63.671875 L 205.636719 63.671875 L 205.636719 86.171875 L 140.386719 86.171875 Z M 140.386719 63.671875 " clip-rule="nonzero"/></clipPath><clipPath id="67e6d3d7c9"><path d="M 146.851562 63.671875 L 199.167969 63.671875 C 200.882812 63.671875 202.527344 64.355469 203.742188 65.566406 C 204.953125 66.78125 205.636719 68.425781 205.636719 70.140625 L 205.636719 79.855469 C 205.636719 81.574219 204.953125 83.21875 203.742188 84.429688 C 202.527344 85.644531 200.882812 86.324219 199.167969 86.324219 L 146.851562 86.324219 C 145.136719 86.324219 143.492188 85.644531 142.28125 84.429688 C 141.066406 83.21875 140.386719 81.574219 140.386719 79.855469 L 140.386719 70.140625 C 140.386719 68.425781 141.066406 66.78125 142.28125 65.566406 C 143.492188 64.355469 145.136719 63.671875 146.851562 63.671875 Z M 146.851562 63.671875 " clip-rule="nonzero"/></clipPath></defs><rect x="-30" width="360" fill="#ffffff" y="-15" height="179.999997" fill-opacity="1"/><rect x="-30" width="360" fill="#ffffff" y="-15" height="179.999997" fill-opacity="1"/><g clip-path="url(#de1d857474)"><g clip-path="url(#67e6d3d7c9)"><path fill="#000000" d="M 173.101562 59.921875 L 195.601562 59.921875 L 195.601562 67.421875 L 173.101562 67.421875 Z M 199.464844 59.925781 C 202.171875 60.007812 204.480469 61.003906 206.390625 62.914062 C 208.386719 64.910156 209.386719 67.320312 209.386719 70.140625 L 209.386719 79.855469 C 209.386719 81.40625 209.050781 82.878906 208.382812 84.273438 L 201.617188 81.03125 C 201.796875 80.660156 201.886719 80.269531 201.886719 79.855469 L 201.886719 70.140625 C 201.886719 69.390625 201.621094 68.75 201.089844 68.21875 C 200.582031 67.710938 199.964844 67.445312 199.246094 67.425781 Z M 204.414062 88.625 C 202.796875 89.59375 201.050781 90.074219 199.167969 90.074219 L 180.136719 90.074219 L 180.136719 82.574219 L 199.167969 82.574219 C 199.667969 82.574219 200.132812 82.445312 200.5625 82.191406 Z M 176.386719 90.074219 L 153.886719 90.074219 L 153.886719 82.574219 L 176.386719 82.574219 Z M 150.136719 90.074219 L 146.851562 90.074219 C 144.03125 90.074219 141.625 89.078125 139.628906 87.082031 C 137.632812 85.085938 136.636719 82.679688 136.636719 79.855469 L 136.636719 70.734375 L 144.136719 70.734375 L 144.136719 79.855469 C 144.136719 80.609375 144.402344 81.25 144.929688 81.777344 C 145.460938 82.308594 146.101562 82.574219 146.851562 82.574219 L 150.136719 82.574219 Z M 137.839844 65.328125 C 138.316406 64.4375 138.914062 63.632812 139.628906 62.914062 C 141.625 60.921875 144.03125 59.921875 146.851562 59.921875 L 169.351562 59.921875 L 169.351562 67.421875 L 146.851562 67.421875 C 146.101562 67.421875 145.460938 67.6875 144.929688 68.21875 C 144.742188 68.410156 144.582031 68.625 144.457031 68.859375 Z M 137.839844 65.328125 " fill-opacity="1" fill-rule="nonzero"/></g></g><g fill="#000000" fill-opacity="0.302"><g transform="translate(71.010291, 93.479433)"><g><path d="M 30.203125 -30.375 L 16.75 0 L 13.578125 0 L 0.125 -30.375 L 3.59375 -30.375 L 15.234375 -3.984375 L 26.953125 -30.375 Z M 30.203125 -30.375 "/></g></g></g><g fill="#000000" fill-opacity="0.302"><g transform="translate(101.296687, 93.479433)"><g><path d="M 24.171875 -10.453125 L 5.078125 -10.453125 C 5.253906 -8.085938 6.164062 -6.171875 7.8125 -4.703125 C 9.457031 -3.242188 11.539062 -2.515625 14.0625 -2.515625 C 15.476562 -2.515625 16.78125 -2.765625 17.96875 -3.265625 C 19.15625 -3.773438 20.179688 -4.523438 21.046875 -5.515625 L 22.78125 -3.515625 C 21.769531 -2.296875 20.503906 -1.367188 18.984375 -0.734375 C 17.460938 -0.0976562 15.789062 0.21875 13.96875 0.21875 C 11.625 0.21875 9.546875 -0.28125 7.734375 -1.28125 C 5.929688 -2.28125 4.523438 -3.660156 3.515625 -5.421875 C 2.503906 -7.191406 2 -9.1875 2 -11.40625 C 2 -13.632812 2.484375 -15.628906 3.453125 -17.390625 C 4.421875 -19.160156 5.75 -20.535156 7.4375 -21.515625 C 9.132812 -22.503906 11.035156 -23 13.140625 -23 C 15.253906 -23 17.148438 -22.503906 18.828125 -21.515625 C 20.503906 -20.535156 21.820312 -19.171875 22.78125 -17.421875 C 23.738281 -15.671875 24.21875 -13.664062 24.21875 -11.40625 Z M 13.140625 -20.34375 C 10.941406 -20.34375 9.097656 -19.640625 7.609375 -18.234375 C 6.117188 -16.835938 5.273438 -15.007812 5.078125 -12.75 L 21.265625 -12.75 C 21.054688 -15.007812 20.207031 -16.835938 18.71875 -18.234375 C 17.226562 -19.640625 15.367188 -20.34375 13.140625 -20.34375 Z M 13.140625 -20.34375 "/></g></g></g><g fill="#000000" fill-opacity="0.302"><g transform="translate(127.504402, 93.479433)"><g><path d="M 4.296875 -32.203125 L 7.375 -32.203125 L 7.375 0 L 4.296875 0 Z M 4.296875 -32.203125 "/></g></g></g><g fill="#000000" fill-opacity="0.502"><g transform="translate(69.092686, 91.561828)"><g><path d="M 30.203125 -30.375 L 16.75 0 L 13.578125 0 L 0.125 -30.375 L 3.59375 -30.375 L 15.234375 -3.984375 L 26.953125 -30.375 Z M 30.203125 -30.375 "/></g></g></g><g fill="#000000" fill-opacity="0.502"><g transform="translate(99.379083, 91.561828)"><g><path d="M 24.171875 -10.453125 L 5.078125 -10.453125 C 5.253906 -8.085938 6.164062 -6.171875 7.8125 -4.703125 C 9.457031 -3.242188 11.539062 -2.515625 14.0625 -2.515625 C 15.476562 -2.515625 16.78125 -2.765625 17.96875 -3.265625 C 19.15625 -3.773438 20.179688 -4.523438 21.046875 -5.515625 L 22.78125 -3.515625 C 21.769531 -2.296875 20.503906 -1.367188 18.984375 -0.734375 C 17.460938 -0.0976562 15.789062 0.21875 13.96875 0.21875 C 11.625 0.21875 9.546875 -0.28125 7.734375 -1.28125 C 5.929688 -2.28125 4.523438 -3.660156 3.515625 -5.421875 C 2.503906 -7.191406 2 -9.1875 2 -11.40625 C 2 -13.632812 2.484375 -15.628906 3.453125 -17.390625 C 4.421875 -19.160156 5.75 -20.535156 7.4375 -21.515625 C 9.132812 -22.503906 11.035156 -23 13.140625 -23 C 15.253906 -23 17.148438 -22.503906 18.828125 -21.515625 C 20.503906 -20.535156 21.820312 -19.171875 22.78125 -17.421875 C 23.738281 -15.671875 24.21875 -13.664062 24.21875 -11.40625 Z M 13.140625 -20.34375 C 10.941406 -20.34375 9.097656 -19.640625 7.609375 -18.234375 C 6.117188 -16.835938 5.273438 -15.007812 5.078125 -12.75 L 21.265625 -12.75 C 21.054688 -15.007812 20.207031 -16.835938 18.71875 -18.234375 C 17.226562 -19.640625 15.367188 -20.34375 13.140625 -20.34375 Z M 13.140625 -20.34375 "/></g></g></g><g fill="#000000" fill-opacity="0.502"><g transform="translate(125.586798, 91.561828)"><g><path d="M 4.296875 -32.203125 L 7.375 -32.203125 L 7.375 0 L 4.296875 0 Z M 4.296875 -32.203125 "/></g></g></g><g fill="#000000" fill-opacity="1"><g transform="translate(67.175082, 89.644223)"><g><path d="M 30.203125 -30.375 L 16.75 0 L 13.578125 0 L 0.125 -30.375 L 3.59375 -30.375 L 15.234375 -3.984375 L 26.953125 -30.375 Z M 30.203125 -30.375 "/></g></g></g><g fill="#000000" fill-opacity="1"><g transform="translate(97.461478, 89.644223)"><g><path d="M 24.171875 -10.453125 L 5.078125 -10.453125 C 5.253906 -8.085938 6.164062 -6.171875 7.8125 -4.703125 C 9.457031 -3.242188 11.539062 -2.515625 14.0625 -2.515625 C 15.476562 -2.515625 16.78125 -2.765625 17.96875 -3.265625 C 19.15625 -3.773438 20.179688 -4.523438 21.046875 -5.515625 L 22.78125 -3.515625 C 21.769531 -2.296875 20.503906 -1.367188 18.984375 -0.734375 C 17.460938 -0.0976562 15.789062 0.21875 13.96875 0.21875 C 11.625 0.21875 9.546875 -0.28125 7.734375 -1.28125 C 5.929688 -2.28125 4.523438 -3.660156 3.515625 -5.421875 C 2.503906 -7.191406 2 -9.1875 2 -11.40625 C 2 -13.632812 2.484375 -15.628906 3.453125 -17.390625 C 4.421875 -19.160156 5.75 -20.535156 7.4375 -21.515625 C 9.132812 -22.503906 11.035156 -23 13.140625 -23 C 15.253906 -23 17.148438 -22.503906 18.828125 -21.515625 C 20.503906 -20.535156 21.820312 -19.171875 22.78125 -17.421875 C 23.738281 -15.671875 24.21875 -13.664062 24.21875 -11.40625 Z M 13.140625 -20.34375 C 10.941406 -20.34375 9.097656 -19.640625 7.609375 -18.234375 C 6.117188 -16.835938 5.273438 -15.007812 5.078125 -12.75 L 21.265625 -12.75 C 21.054688 -15.007812 20.207031 -16.835938 18.71875 -18.234375 C 17.226562 -19.640625 15.367188 -20.34375 13.140625 -20.34375 Z M 13.140625 -20.34375 "/></g></g></g><g fill="#000000" fill-opacity="1"><g transform="translate(123.669193, 89.644223)"><g><path d="M 4.296875 -32.203125 L 7.375 -32.203125 L 7.375 0 L 4.296875 0 Z M 4.296875 -32.203125 "/></g></g></g><g fill="#000000" fill-opacity="0.302"><g transform="translate(208.189473, 93.479433)"><g><path d="M 24 0 L 14.1875 -13.359375 L 4.421875 0 L 0.734375 0 L 12.28125 -15.625 L 1.46875 -30.375 L 5.15625 -30.375 L 14.3125 -17.96875 L 23.4375 -30.375 L 26.90625 -30.375 L 16.140625 -15.703125 L 27.71875 0 Z M 24 0 "/></g></g></g><g fill="#000000" fill-opacity="0.502"><g transform="translate(206.271875, 91.561828)"><g><path d="M 24 0 L 14.1875 -13.359375 L 4.421875 0 L 0.734375 0 L 12.28125 -15.625 L 1.46875 -30.375 L 5.15625 -30.375 L 14.3125 -17.96875 L 23.4375 -30.375 L 26.90625 -30.375 L 16.140625 -15.703125 L 27.71875 0 Z M 24 0 "/></g></g></g><g fill="#000000" fill-opacity="1"><g transform="translate(204.354261, 89.644223)"><g><path d="M 24 0 L 14.1875 -13.359375 L 4.421875 0 L 0.734375 0 L 12.28125 -15.625 L 1.46875 -30.375 L 5.15625 -30.375 L 14.3125 -17.96875 L 23.4375 -30.375 L 26.90625 -30.375 L 16.140625 -15.703125 L 27.71875 0 Z M 24 0 "/></g></g></g></svg>